<svg width="217" height="217" viewBox="0 0 217 217" fill="none" xmlns="http://www.w3.org/2000/svg">
<g clip-path="url(#clip0_37_12)">
<rect width="217" height="217" fill="black"/>
<path d="M148.264 76.0435L161.303 84.764L110.961 84.764L14.8022 34.2617L0.802246 23.2617L148.264 76.0435Z" fill="white"/>
<path d="M163.77 89.8652L147 99.5L143 109.263L184.802 109.263L193.302 118.762L193.302 100.482L163.77 89.8652Z" fill="white"/>
<path d="M41.8029 106.763L110 89.5L138.5 99.5L134.5 109.263L55.8029 109.263L41.8029 106.763Z" fill="white"/>
<path d="M130.74 125.357L141.302 116.262L173.802 120.762L177.802 125.357L130.74 125.357Z" fill="white"/>
<path d="M108.802 117.761L81.3021 117.762L56.3021 147.262L67.3021 151.262L108.802 117.761Z" fill="white"/>
<path d="M117.86 168.762L117.86 142.762L125.5 131.5L134.302 174.262L117.86 168.762Z" fill="white"/>
</g>
<defs>
<clipPath id="clip0_37_12">
<rect width="217" height="217" fill="white"/>
</clipPath>
</defs>
</svg>
