<?xml version="1.0" standalone="no"?>
<!DOCTYPE svg PUBLIC "-//W3C//DTD SVG 20010904//EN"
 "http://www.w3.org/TR/2001/REC-SVG-20010904/DTD/svg10.dtd">
<svg version="1.0" xmlns="http://www.w3.org/2000/svg"
 width="320.000000pt" height="320.000000pt" viewBox="0 0 320.000000 320.000000"
 preserveAspectRatio="xMidYMid meet">
<metadata>
Created by potrace 1.14, written by Peter Selinger 2001-2017
</metadata>
<g transform="translate(0.000000,320.000000) scale(0.100000,-0.100000)"
fill="#000000" stroke="none">
<path d="M260 2060 c0 -8 187 -68 230 -74 19 -2 71 -10 115 -16 44 -5 91 -12
105 -15 14 -2 61 -9 105 -15 102 -14 83 -11 539 -76 l389 -55 176 62 c97 34
187 66 201 72 14 6 27 11 30 12 18 4 147 49 154 53 5 3 -19 14 -55 26 -62 19
-96 20 -1027 25 -529 3 -962 4 -962 1z"/>
<path d="M2337 1930 c-110 -121 -123 -142 -126 -207 l-2 -62 83 29 c46 16 135
47 198 70 209 76 189 74 264 34 36 -20 66 -33 66 -31 0 9 -69 189 -75 195 -4
4 -90 7 -191 7 l-185 0 -32 -35z"/>
<path d="M1854 1750 l-111 -5 -341 -229 c-188 -126 -340 -231 -338 -233 12
-12 187 34 346 91 102 37 190 68 195 70 6 2 17 5 25 8 8 3 56 20 105 38 50 17
113 40 140 50 99 36 190 69 213 75 12 3 22 14 23 23 0 9 3 38 5 65 3 34 1 47
-8 48 -70 3 -162 3 -254 -1z"/>
<path d="M2598 1655 c-2 -2 -15 -6 -28 -9 -131 -25 -351 -73 -355 -78 -1 -2
-19 -34 -40 -72 -32 -57 -35 -68 -19 -62 10 4 24 9 29 10 6 1 15 4 20 8 6 3
26 10 45 16 19 6 122 41 229 80 l193 69 -35 21 c-19 11 -37 19 -39 17z"/>
<path d="M1693 1367 c-78 -29 -146 -57 -151 -62 -9 -11 -20 -40 -106 -268 -31
-82 -56 -153 -56 -158 0 -5 31 -9 70 -9 l70 0 20 38 c11 20 30 53 43 73 12 19
38 62 58 95 20 32 73 120 119 194 45 74 84 138 87 143 7 12 -6 8 -154 -46z"/>
<path d="M2086 1274 c-10 -33 -20 -67 -23 -77 -2 -10 19 -86 48 -168 l53 -149
103 1 c57 0 103 4 103 7 0 3 -52 91 -116 196 -65 105 -125 204 -134 220 l-18
29 -16 -59z"/>
</g>
</svg>
